<mxfile host="app.diagrams.net" modified="2022-10-30T02:38:27.046Z" agent="5.0 (Macintosh; Intel Mac OS X 10_15_7) AppleWebKit/537.36 (KHTML, like Gecko) Chrome/106.0.0.0 Safari/537.36" etag="VAQPEJ1siMrERt3ULpy4" version="20.5.1" type="github">
  <diagram id="dS-lW4TonwO79RCoBeFZ" name="第 1 页">
    <mxGraphModel dx="705" dy="450" grid="1" gridSize="10" guides="1" tooltips="1" connect="1" arrows="1" fold="1" page="1" pageScale="1" pageWidth="827" pageHeight="1169" math="0" shadow="0">
      <root>
        <mxCell id="0" />
        <mxCell id="1" parent="0" />
        <mxCell id="WvZ8iHgyDvl_fd5CZrON-1" value="" style="shape=image;verticalLabelPosition=bottom;labelBackgroundColor=default;verticalAlign=top;aspect=fixed;imageAspect=0;image=data:image/png,iVBORw0KGgoAAAANSUhEUgAAAKwAAAByCAYAAADOBTqHAAAACXBIWXMAAAsTAAALEwEAmpwYAAAvT0lEQVR4Xu19B5QcV5nu7a6qrs7TcXqyJmkURrKiNbKsgG3ZOINJb2EBGxYe7ywsPHJYP9hDMGnBBi+7sBgbg8G2wDa2ccRJki0LhVEahRlN0KSe0Dl3dVd3ve+/I/mwRrI00iiAq86Z0zPd1VW3vvvd/35/uHcY0w8dAR0BHQEdAR0BHQEdAR0BHQEdAR0BHQEdAR0BHQEdAR0BHQEdAR0BHQEdAR0BHQEdAR0BHQEdAR0BHQEdAR0BHQEdAR0BHQEdAR0BHQEdAR0BHQEdAR0BHQEdAR0BHQEdAR0BHQEdAR0BHQEdAR0BHQEdAR0BHQEdAR0BHYHjI2A4U2AOjGcls9lsVHJ5U6lUUhbUOQpnek39+zoCJ0Jg2oQ9NJ6xhMPhmmKxaBsfnwykMmlXLBr35HM5we/37V+zZu3BhfWOSR1yHYGzgYA43YuCpI477rjjQ7lcrsNoNHrLmtGuaZpsMBjUYlEZUQql73UOxLYsbXLHpntt/XwdgZMhYDzZCa//vLKyMnv11Vc/J+Eol7UGQZBaTCZzgyiami0Wx0XPPffCvxw61DPv0FjBOt1r6+frCJwMgWkTdn6NLd1xycoDza0tL5TK5YQoigamGZlWNjBRMLkMTFi8YcPvPzM0NNLaM6EKJ2uA/rmOwHQQmDZh6eJ2uz0MK/sIpMC+coklisUSM5utjF5LJS2A9zp++tOffnpkJNjaGwKT9UNHYIYQOC3CzvZK5YaGhiNXXnnlPdCuQ4Igavm8wgRBAHHNDGqhOhKLXvab+3/7kbGxseYZauuMX+ZQpDxtDT/jjdAvOC0Ezsj67ToS991xx398L5ct3phOp70gKr85SMw0rVQqFPN9ra2t933oQzffs7SpYmRaLZvhk3cP5Y0lzWANJ2LO3v4+b//AQGMqGfelIqGhNZes3P7P770mOcO31C93FhA4IwtjksTkyo5l9z380B+WOSpc7oJSNGoGIxOMItOYQZDN9qbBoZF33/eb+xOv9oR+d0mbf+wsPMMpXfKuX/22fdvOPR9USuWWstEQEE2SRy3mtXIm/uqSJct6cBGdsKeE5Pk96bQkwbEmt9faCytXduzzeF2dpVIxJcsylwV0GEWJFUtlKZsvtPb09b/vT88+39E5mKw4H4+7uTvu6jp4+L0lwfw20Vyx3u4OLMfvrUbJ7HN5K8Wm5lbtfLRLv+f0ETgjwh51wGI33njjb0jL5pXsFFmNRsgCgamqSprWgtd5Gzdu/Kd9+/a17R1OWabfzDP7xtPPvdAYjadXM4NYJ0gWh1YWTAjJiQjJldG2NPT4VMP144JH4IwJO9tvUpcuXdLpcbn32my2BCtPGatCocBMJhND2Ish1OVEFGHFQ79/5HO7d++dvT+YnRK75+DYsPngrBdfevlfLHZXm8FospTLjClKkRkNkC2qlgj4/b0Wuy1zDpqi32IGEDhjwlIbQMrMNddcc082mx0ym00MMhbvTV0a9QXcCZPMcmW+WFjz6GN//OzQyGjTDLT9pJfYNpKp+MPjT91QYMZVBqPkFyQzKyHKZpJkZhJMWaSXw29961s3XeQ3KCe9mH7CBYHAjBAWVla5aNGCzjmz214COaMohGEIEbxmYelJibTIiFVns/l19//2wY+/tHe88WwjsHVbZ31XT99N0Kr1Rc1oNMAZNOIHogVypVzQSuXUokULz5sjeLaf/+/x+jNCWALGJIipG2644ef5fP6w1WotUTy2iNgsrBjFZfkryQRMv/UjY+PXPbDh9/+4vS9Vc7ZA3Z/UjI89+fTNRkmem1GKNgO1oTQlV6gtpWIh7/ZUhDA7lM5WG/TrzjwCM0bYJp+g1tdW91+6atUGEHNMLRaYDHlggoYlglD0gKIIuaxitNucsw4ePPjehx566Pp9I1n/zD8WY3f/8oHFkUR6LRNlnyTbYFQFVoaaLkPECnhqiyzFa6urOkXBmDsb99eveXYQmDHCUvNaKoXMZZete9Dv9x5AmAvytUgJBCYYNDg4JSaBNEetrSjL5tYdOzr/99NPP7v2YFBxzeTjPfTngbq+IyMfYoKpqQRPyyiZWFEtTzmAaEupUCijQdGlixZskmUhPZP31q91dhGYUcJSUz0uZ3jd2tW/MRq0SQayFiALiCgkEfgBC0ekhbWV8Tr/2Wef/cwzzzzTcSCYdc7Eo77Snzb96fmNl05GYperTPBrTGAFDBbSrnAK+QCSTIacsVycuKRj2dhCjwFxA/34W0HgpIQ9FEwYBiJ5uWc85cTPSUsGYWWV9vZ5G6urA92ZTArkEFDJpTIln4U0UEAcBouLQBemZxDWgtDX/BdffPFze/d0tXdPKGccoz3Y09s0MDz6wXRWbZBMFkZyAKWPU1JAMDCSKrlsquD1OsKVfosezvpbYerRdp4wNdsznnErimKfmJiYm8lkqkEuNRQKOfqi+QcTiYTV5XIljBqirqVyCY6WOq/e/Zqlslnk1FXr1//Xhoc2tKDssF5F+ZYKK0cpWwnhrhJitSWtDF8dmlJjLmiHxffcc8+tTuenvtYbVve2+sTTWmbTOaK6vvqt738yHEksQRjLLggyyxeRJMadyri/DEuvgbSlshpva2veVixoxb+x/nrTN/e4hN3eHbQfOnRoZW9v7/Uul7Me5YRGENc3Ojoqj46PXTdr1qxBJAlGZFEKO+zWQVmUQweG4lGr1R4HogWjIKSWLFn0zMaNL3y4v3+gzmQxG0ySAB1ZQtCeXB+kbzWNqbB6JBfgpPnglC39+c9//rXPfu7TX4Cl7Z4TkKc9VT/57POLx8ZCayWr0y/LdpbM5lGqa+KWVULsVS3mEM0wlCFqk63Nsw4IrKTHX//GhsBxq7UGY6oRJHJNTk4uHx8PXpNKpWYhhWmFJXTKVosN02sZEjQnGoyKxWxKG8paIacUFafT1YmM1l63233EarOl+/r61vzsZz/7CaIE3hLKYVCGOEVWOF/0inpasrE8uQBxCzIrE/5K76YvfvGLn13c6BqeDpa7xjTXl77yjXuS2eJb8iWDqyyaQVYJReUyvwxmAtyxyHLJyazTqm37+r99/v9cOT/QPZ176OeefwSOa2FnuUWyblFo15crK307QV4LyCUlk8nZ3b2H3xOLxTyQCKLFJFsTcbXNZrbYULhtiIRCl0iyJdjY2PiH+OG4h+oI1l95eRqW2gsLDeenzIpw0FUVqVHoCTqySp4hbsuKeIWVDQwPD6++8847v3Y4VPg8EhKntC5sz5jqvOvuX300EoktM4g2F2lX1SgzxGCpoJzrVxUxYKsMOaKq2bqa+v11tZUT5x9+vQXTReANywubvGYqCnmtMKQvlB3xVvr/TDeB1TTnM9nankPdHx0c6JtTUeGuhGV1yRZbE6TDJ/bs2SPD+VIrfV7BYpFZx8XLmd1ZQXFYFg5HWDA4zkZGRlhwIoi8fgkas8ATC9CZlf39fZdDHnymN1z8QatPIplxwgNF2MLA6ETTtp2d7xZka03ZQAkCstsGZtCmXpHiQjwYFjyXYnaLOdHePv8VDZmu6YKln3/+EZhWPWyL30pOSuJosxP94Vxk9erVn1m5YoVlYjy0FMu/r4ZD1h4an6gtFPJ1pXJRhgpQKQir5NIClAArKCqzWWW2eNECtqC9jQL4DCtw2RgsMIjOJiZCQiwRr9ndueNtD95vU7on8j+dEzCHTwTVZCzS/MMf/+i7SrnQZjSaBQ1x1jJ0sWQyQyMbOVnLiAcbEb0yaCVNEMuJBe1z+uZ7Bb1Cawb59/yuPrfFYpHg72QuqnOetejLtAj7+udr9llUvEc/ucFJZVNNTc1WRAzcBpRx//aBB74PiyuOjwaryprqQAzU5y8Hqo2UcYLgyGem5HMqn+Ox0ebGRtba3MxlA0Jd8mQoUg/y3wgrPLLlwOgByIYIdHMWMiQNzUv3VLJFxfPSK6+unRgbnW8wmisKpQwsKkoabRLiv2gYziKnjuSGSVARK6CcrJIPVHqjM9hX5+RSe8ezlng87oG8ch0+3OPxet1HPvfBd05L559qQ3eHVLPdJhjS6bzZaTUXcF8JkZ8ycBdNWLsnSEY1p5TNhYJqRvpdJp9mw4YNNz766KNX3X777d/GrHdYkgyxFqcBvTCzxxktkTleU4aiqgHxVgtqYqWiqtjBLROctjr8zMcDfcvn9npdLg8zy1bmcFRMEYpStwh5kaVVoG/psNisDJGIGD7oh1TIQENnQdgJSIYBaN0jdof1gN3pUr77vR/cfmRw+DLIACzbNYOsDlwDllWyQmJMRSEkRCiUTJKVi2ll3pzGTbd+4f/e0l4tBWcWyrN3tRf3T/pf2PhSx8svv3yLJJsCeJ5ybW3t0x/56IfvXlFjPy0t3h3TzDAcZkQXRdgQLZFWLEMjw9aJyUnryNhI83hwpLlUVpwOqzWHSFHGYbUpkUikenBkdG4uX3RpTLSjSl/MpnISrZyGw+zDMimr02mffMvadfsWLmh/Gt/rc9gsR2wWc6i9UpqRFPgZWdjjdVGDRyRvik+3fZOptCAYTSCeAgJDShgGtm/f6aVl4T5fJXOCsF6vn2GvA5ZMptmern1cx5YRPaDMmCAa3I3NzcuwooEcMxXOXlFT1VxdXd0EBkM0lcyU33nDDfNReWXI5Qvs4OFeNjI+yYJjEyyVTjGLGTUEsObFZIGpKC43m4zq0gVzR8pq/qQJkLNHv+lduSuqWX9w+3++Jzg6/o9mh7cZITpbNp8rTsYyLFc0Pr0nCrgRaMFVRfIrUDhfkiRjMZnMOIF7rlhQpYJaFLlTHIm4gK8hm8lLDz/+QtPevV1rYrG4BcbE6HS5rOFo2FE2lB1mi1iRiIWtFS6bURYMRhS4K9l0RsgpimwQJGtlbYPWdaDbWi4ZDYLRbChk0Gc8tm5i6VzZG4qlZ+3Zd+gShGYis+rrDtXXVj3cNaFuXhAQx6f39H999owT9i9v0VLpICBz+4cmkd8yWLA0/PZf3HXP7ZlMrnIiHGIjwQno2QkqO+SrFCi5ADXAsP0RiJtGL5TgqEV54YwkyrAERlFDcCISj3mo3lZEoAozPV4NrNbnYXVVlzAVJgPrthg6lUVjCZ7lwpTGxkaDIHGCrViyYAihg/qeYFqQJSGDnEYRpY9FJDGKVGBwVOKojQHzOV02sz+kGVVVs6FcVzKi4AHBDVoeJybSzDoeSr69JFhaJbPFCytmNNvcLF9i8x9+/Jlvel3OQ9l0UsQzBoLBYHU4HJUxG2HZmmiAnixRKBGYCPhbisUSJnxfXLfusjSSQJ5CUXSYndWmuuaFWjgaMom5oqm2oVqLxyZMmVyGBWrrWCIyybr7+lhVVRUzom+SqQKrQoxbM8hMAXiEmNXqYpCCmDWNyGjmmC/QYDUJRquST9ePjUdn53LKgnxWebrzSPpeh03une2XTlsqnFXCHiMvHiaPOG7e7fL2Xnrpmlf/vG3H28jy5fLwx+DJF4rI+lPVtxFZKNBEli1MxGoFSusi+sAJnYcFpWIakyzCGie5VS6XCkyCY0WdEp5A6QIuUcR7lFmzOR3MhhCsTNew+lnH0oX0PVsqmbhlZHjoJqPGNwHJy5I5DGdhDBZ82Go1j5qtlijez/YGkyoGShxWK0kxZ9LMVM3TXGWfVkKjK6hKsHoCxqMEEY3f0WRMw1TXjvFpyOQVc7GkCtt3Hah/ZcuWddFovNpfFYgJoqSmMjl/JJpsHY8k21F07okksxT4YDJIks5lfaHYzvVaSV1FxUUej0c0GDCanR6Dw16hOZ1ObXh4VEzFUsKKFSuVVCZjHAzulJta5zNNNJcHg5NAW2B+fxXzVdezkiCxqrp6ZnOYWO/AYWaxOlBtZ2VOj5/V1ltBSjs7eKgH+NuZiiiM2WZD1pCylRbukxgR75YtZHiQCMLQN6NY3mpFeYiq2FKpzIKhoWE/IkEt9XVV3++LlPa1eE+v6GjGNezxTP6OnmELRlkAHd5cUg0VP7vrrl+Vi2U7fHY8EGDDyNWgXWnLjakl4mU+YomwJpQkqiAhSQS/3w8QCAgr/9vncrNCClM9zqHQmYqaBQmEhpRgcNjwu4VBRvBBQRqZ4rFUeGPBNej7sECq1WQhIsInRERYySlwAImoBdksZXBOGMZu3Ov17hIkOYTvZjCADqOVxVwujwiIlDM7hWwsVbQruYIFiy4pbCflCkUhmUqbYNHkWDxdiT0b/MlEelY8lZyVTmdduJcFEkbGYDDl81kJ0zTpQBmWkAqAREE0leHQwCaaEPWQzFjQKdEMpIFiAAg/mAsgmyiDV1ByzIZnmT17Nuvp6eHPvWjRYjZ//nw2NDjyWmkn+Qf0zG43FBm+i6QQK2Ia93oq+dq7Xbt2gqBG1tLUAGLuwWCXmNdXwRM7eVhN2neCQpKyBb6BgqImOMcoBYFDi2ngaK2GHbimkwl26aoO5nVXYGUH+hL1IxoiiEYyIhZToqbav7mhvvb7Lrt9Z5NfmnY04ZwQ9pV9vU503upMTllRLhvqEAG4duvWbdVKnhII0lSmC+AZMc2DM8yMB1exYkGQyBHLcEkwlQ2DVQbw69evZyOjQ8xhs7PaqlqExrB5B8jNkIwgKwx7xp2tqYgESIRrRqNR2koJt1H5NcogN5E5hTm3ooK0tBe62sPcHhcnP+6pwblRQKo8zlPwHdgNQ0EwiElk8TJw67RwPFHqGx5WJyJRG1ZSOCPRmETxZWaQDFj2bsT5MDgmWD6YL4NoQsraRG9gIhXQf0Z6JsgSyJ887olZhcofRWQBQUpad2bCgMPkzmUOX9SJL5FgFfAdqo3A0/J6DJI8WOqD1yi3cDT7IMTIuru7eZGRYJJYwOdnoWiECu1ZAvreCsz4AMAVoG2ZGzMSFSvh9mg1KtowGGgGM5lQf4GBSCSnQ8FsSEuMaCYUKZNoMHO/g55FxJdTiRhbs3oVa6itQZIoz68hAgmBBhhe7TY5EQhUvlBbVf3vKKDf2+Q1Tau885wQdkffmD0eS67sOnDwE/AX5s9umyvec8+vm8hqHFsWjlmNE85A+3RRq0BgwMRHP50DL5QXgJPlpQP1DGz37t08zUu/0zl1dbWsurqaf8cKa4J+5ucTQQlUIgJuwNLpJO/cIt7LZbL8M5USF0UQB9YeiVzUPSi845G1YwjXwTK50S6BzW5uQUFNkfUf7i9B06lpRTVk84phdGxc4lk1NF622FkkkWQDR4agx7Msj8EHr5rWtYEMeMVzUGSEBpMBP/RKMwecJF4zTO2BhQVBgQfaTCQkQtAz0kCjgY2MHa/tJSITCQkfBdaWtoyiijjCCs4Uy2PA2x0OEMUGkqksiqQNZM9UaABwFFG9Rtcl4msY7DJqh2nw0zInsuB0UFKHzqEBRdZ2qh0gIe7N3T3qK3oOXN+MZyRj8653v4MVclmoPHIKi3yNH9Vy0BjBdaMup/OFuXPbvm9z2vbM9tlPuabjnBB2z3BEwL5bNd09vR/etPHVW1ra5vidDrcNdbB4UDwxpjiyBGQzUEp1VFXQUvGjKwQAEHUiyhg4+VLZHDJipLlqWRemQVHGwkeca8Hn/DqwAl6vj1XCqpD2smMaI+uhokOoU1PpGL8vfw/EUZUCrKyDE5a+SxavgKkMu9bwAUD3RMUaOl+Bk2jla9WgE/neC75ALcvmCgw7NjLUU1CkB/ZTZDa7ExLHyBKIfvQPDTEFBIRW4QkNBSQhctLBiULERfttNpRDQrLk0hlOWD7AwCoagETAIohDHc+L0PEetYN0KJ1Lz0XfJVKRxjfhPJJONONMRV5KDGGmqeVBR2crTmyzxLKwuFOkxaoQXIOsqUnE4ML96Vy6LpcfKBGlJtH3RPydjMcw1ZM0AfmpGg+WnAY7GaJly5fwWQvOF1/hQZgKaJOMWZOIjT4ZdfvcD8CZu31BrXf0eFLyeO+dE8LSjXcNxSuiicT8/ft7//mFjZv+AdpJpNQsJkz+gLzj0Bo+1QGwqb0NqHmkaeEyU3UXdBONZAtISBbA7vEwwW5l2KiD5UFics5omqJzipAbJmgrGXUFpK2IoOSwaYwsURaEwspZgMenO9yTVvtSZxJ5uGWBJSOp0NbWygu/6TOSFgjvcKuNQh/eUVaLk4UjUcSUHSwKq1rAhnhkiTW0PTgZ4hZXxTjM4Bpmu4M7llhuwUnEpQ40vJlWRPBlRPgMhKNBRAc9MwqMpvCgVDMNSmQJ00QwkICekyTDMQ1JpCbJMCV5EGGxI1RKEoIPeCRP8Px8kFDMhssOzFYGFeE/E26GMyF6SIqQZ4eoDK/DoOJ3Ii0Rv6TmuRPr91ZgdsqxqkoPCEvj0MAyyRTLwPrSuSRRKDQ5Z84c1tLajKRQE382swUD3WrjWKM8FVsJq0/gub9uFIWDbV77KaXKz0mUgEDC4sOsQzMEUYvwPBySm8YnoiIB2wArSelULGoFuDho986jBCWDSw4Y7YpI1oSmc+yAxC0IRRLG4TiIWKiQTOe5XjXCiYMhATgyJ4UJZC2g8yMpAE3JA1QTipKGqRnaED1uAyFFdI7IdSSsF6wrtalYIPlhYdh8g8USUwQloEmDGSFHy5rCEBbinS5LCeaq8MBKK8wBL9kRcLH+wSN8ojDhAWJJWHM8Vg3CQmkMKkpNi/CuS+SMIJjGQDgNtRQQtDxSoqEdiDVjMEmYEehcEBh/k2IygdgiiCVDYxIxCTdyWKnGmKQBvUck9rntnDhcPuCLlJY2kgPElyxB7vBXDABcR8N0nc6n4TzBoqMHnDYnBrOdHe47wu2/ze7iFp3GsIDBZAIGHqcdTlWAVcEJPnRwP1LqwddkG+lsTP7MCv+iXM4zrJtjrbMbuUan61B7SOwBczmdyzRZrbZqNIX2XYucipU9Zxa2O6ZKh7p7V9z/uz/8OJ5IL56ciBrJayUrRhromANBI5GIwH/w/pSGhc9C1hYkow0wyBMma4LoCkvAImRzUxZJxHlENKp9pf1qefELOtCIaxLguXwKv8NbhXU1oBMt8lRdrgIicVICZG6NYHnofql4ggUCAU5iskLU2SRFiAiIZ7Ik2kHfoc5HWImTxO3x8WjGE08+xTVrW1sb23/gEA+zrVy5ku1FcmT79u3s4osv5jMFDUayrvSc5OBQe+k6hA2Fi4jEBWhC7pDRLAMn5hhGNIhNyOhFYOGntC7FskFyOD/0PJlsikssuv6x6Z2uO3UfriXxMQYILRvC9UdHxvhM4fMFaGJndQ2NIKnMp3Cy2FkMPlbKIyohsY986P2wtG5M+xVsYGCQ7T90kEcplKMzByWGZs9uYe3tC9EnEtfYRNRjMo/LGUEYUZTCg+jUnwLb/rl+50lDhueMsM/tG6x74He///H4RGyt1eHyKgiN8JUAaCLtYaDC4nBy8SnrqBygghWKHmDqJgtI79PURU4DAUBPF88WecyQh33Ik6VgLE2gR8NYfBMPTGNUT4ASHHKn8DlZMJAffM0gDEOkdTmcU1M0rCwR3gRi8rVosGqxeIQT0+GwQ3qk+XmkN7v27WMjQ8Ps5ptvZsjxs42bN7H1l1+J6wqIQCR4GzHd8cFFg4zLGjyjwwkHCKSkzylyQYP1WEeSFeKdCYtJUZQSCGdDupmXSELDkpNE2nTO3NmYosnpMrKdO3dyuUJkpYNrSpCQSwM8D03tXGrgc9LOJBXoHnQODWbSqHRtiqT4/QHMLHFcv50JIHcW152SKcAbMsDjtDKPw8KuvHwtQ00GsMV1IHPo2hKsPWl9et5j6/im5Am5z1NcpPcJB5IY+H2ipBk3IV12J97b2+KyHCusOqGxPSeSYO94xvjAgxsWqSXN4fX5VexriCmBtCqIhZ9iAVYGTsPR/QIw6vFwAJPkALQOf9+CUY0dB7nVoBFPHUx61e+i/eVoqQ2BgKU4HBjSvFShdXQPAuhE8pBNsKgWWD3MslxHWSl8hfAL3wMM8oFbAVzDCi+ftCxZfhowc9oqWTQS4lKkwmHj3ncGkQaaHWxzHaxz1x7+3bY581gvskL0/tTGeBQaUqF7C8wFC0vfh/VTDWCa02zRSqgJQE7LAOkiUzgri8FgwAyCUmMiquLxO8aRCghDoxqhgV179x5uIguL6EXR41rSBSvvxKwiGrRCPYyYkRwaIiNZ1yI2kiQDarNYFaRNVRDCiDaBG5KAz81430B4pVFjQWm1AmSQ1+1j9fW1MUQxSrJZNOfVvL0MHAW0rQDHFBE+VlvXxK698gqWCE0w1C6jfEPGrOLlBqOEQSYiXIabsXQKAxszF4UIUf/ApQD6kepk8hhQeSjvDPosRHubyQKmRYNBPhxOS4gYvOGypXNC2IuqbOWXDo7++XcPP7oFgfSKUjkvo+wHa7lgXXlAY8px4JYBFo1GPj9gYfN8ipmyuERcIsOxfbvy8M41XICsC1kJPi3SRQEet9YA2mKbcmjo+jlYCCyPYX7EW+keNFWRty1Q5AUWxgZgiacqlwSIN4CsWYoQAHxqSxHZtkn8nUzGWTwa484Fj0FiYGHXG/7agGwRhcRoWsbgKoBAk5AQWatFSvm89WG0kzJsuUwqYZckRxFLjLL4vT6eilcXcik7WU0QKYY47uiC+Yufunh5x6tYZlQNf7N6V+e2r5bLRU9tTeVAwO/7LWqNYbgTVXCGroVjaAVpjA67GesssySN8lWBqrjdaoui2CgEDGR8DA9BkDG4EKVzi0NDQytS6bgnEPBBBvjYxOQYGYjDKy9ddd+evXv/QUmmFsHJspXwPFbo84yKyjpKANgsWi4pFRLJeFHJpEpDwaAGjVrEQIayMCFSpxYwKyQxACHtFQSjjag0VRXKICJSQHUmaYTVErAoEUGSxt1uqGK7vZKKaHYPTsQWzwqc0AE7J4Ql7r1lXm1444Gx/9rRufNAV9eB98USk+2wHrWGstlcpowXDpomiGTHslImEIhymNwhgvXAY0/FGxHf4xoPZHW6rCAfxQZhW3kwHYIfaUGu2ygmincsyOBQCMuL6TCTjrO+yAQnK1kF69EN62jqopgsWdsCLFQ2Q1MZyh9TiGPCalEbJAwc2qExGBwl34/HMmmwUax26eJlPC1cFfCzrVu30LSfnjunZQuKxZ/EPg0HMRWHMJVnQVjqOBVTMpIQhjKsYnlsfNQP/TcLqzLqYvG45bLLLtvR1jYXq44zNOoytQ21B0DMAOzgx4CPoX5W/caOlSt+g0GZg5USly5fej/aTf8nTUinUpC6WpnqCHCvAnBSzLKlgGflke6jP5TpanrwwaF/tVi0ReHwiGcyPGzBcKcAh3j11Ve9AissbXn11Xow0MbDYpQ5B1kJI7Szz+V2b0tk0pJFEgdcWJ2Cc8wm9F3nzl1r5s2fuwMFEZMYUGNoUwn3LqBPIahZjv6XG34K+OHRW6vdnkZsV0TEIsctL8m+NzjOGWGpDevmV48fmMg/PHfO7L04runvG7oilSqthWW0UyxRhNYsY3qCQOCEPOZckYUlMlJYJJ9FmpacBkxhVsgErQzrit2GCgiQwzpkiopBQ7G46ZWXXzbR98nqUjxwZcclLB4eB0SkpsqUiweJ0yyBBALpPAKKW2KQEKV77OLly7hWnNXQzHUfFX9s3ryZdfccxLRZx4ZGBrleEzDYFi28iGvCtqZWDKgMOzLYj6nQrN5443UPLFq88Dno0kiLx/pGBeNUn9s9EM6YR0ZHDWsWtb2+FK90OJzNOCvsEWQJbW53RRfkhjLbK8eP9u0JC9xP1PeDKS38wZvf+4XOndvfBvIuECXZOTo6thTLi3I1tf7BYrn0yu7dne9JxuJ+kMtMTie8BEq6xEDYLR53xd2z2+b0YwVyGrgVYWEL2FK1JRINb16yZMkWDBbKd5fm1/pO6ki9IUNf9+E5JSzde37ATBrlYE9EHUKK8Zff+fZPngiF4yspCEt6ljRfEU5Y6ahuJY/cBO06MjTCY4pWhKR8Pi/0lptrxEg8Aj+3nAaAY9WVld2YkjLwrKXR4aE16Aj6H2I2l8eNVO4wg6XiUYYxLMuhmC7y+Nwrrq4MIK5q56naAiw4ipA50ckJiUYoKxZnPYcPwgPOsgZcg+KZBUyPFBkg2VBV7WNDw/1ISERY1/690Jh+WOaE66mnn/hgXX3NPgTsTykw3uSznbCKKZVOS7BqO/EaQpKjC5LmlOKWJyLDLIeheDiaOXDFFVdEQDa1u/vwitu+/d27A1U1DtRJ2F1Oawh6/WB4ctyHsVxFwQckXlIYmPucbtfDZotlT6PHcmzAHLvNQerbH3/j1ulwcFrnnnPCHmtdm1fMdI3l7VCtSUy15BSIFJukTIsNGSuawuGSgMTI4mQUNjY8yENJVoz0fH0DCwWHScxnU5lkDB7uWEdHx++vuXr9H0DEEsrs5pT/qNhvv+P7z+zc3vll+CWV3LHCdclyYyHlVDaIwkLwwEgX0yYfsGCw3jL77//+z9cKy0n7UqUYyQL4dvCqp7z1mtoqhJNCbPGCxfgnkBmzHQkMcmDI4SO54fU1ID453L5588br3v3ud/Xhg1NaUHmi3sMsMfGd73znB7DqZrRbaXHL08rBH++6sz02rTeSmYQl9KNYZgvSqBkIagmzQwZ7PYrveMfbbsPavPWvvvrqtRPjQRekT+/SZYt/V1NTteU4ZJ0W8U735PNGWN7gMvxKoxZDcUScKtaJTPF4CNPtCCcW5fB5EQYNbwTXI5NBFkJVl91C5ZqZDIpToldcfeUfYSl3xqKhTZcvaeKrCDr7I2P/+uUvjmAt10qU3mWrYPEoZBCJwlmCBPCgwIUIRtZVRcCcPHpalZBMwYnCwhuTLCGcmFeQnsUKkJwKayukUtxpMZKHDcfBNDERLKKweX9tXfUuLJq8CN50TTIZq4LlE6KxMFuy9LL+kRGTaf/+rms7Vi5/qTea3N7qcZ72OrJZDnINz4z0xyUJtvVPRBN1u3bsuhza2kl5flSAYZfyctHpsAVXr1l538UrlvxeEsQi30+vrOXa/I7ztgHJeSUsdjfMIK13GGm+ecjDIMWes6IUTQr4Md3Ds4TXrECUFioczkz7/LZMY1112ev1JOn/2kJXBYdHh4KXvWX1nYuWXDTa6ra+tm3m0mZvBnsrdD35xNOzUJgXmwyNN2AKM9JmHqqKfDfgPojwE9UJpOIpciIQy5XgqFh7bVZLj80mR0DGQRA5Dh1LzoCMssAArCx5WRWQDq2QFd73/K93fVkCl2trqyqw8cjFE5Ojl6IegTIhcCXlXe9617v2b/jdA5/YunXrO6+//voj+O7g6VqWs/U9zCASqrVaurq63udD+VRwYhwOGtNgxTPNLtOx8j9ymC6I47wStqwWM02NdQ8W8rksRi/qRvMwhbJdNlcg9CfkEXoZamyc1QWdGBclYxzhJdJtud7uHtPqNatGa+prIlesWHhcq4W9FUov7jy0e2BooA+efgNqS71ktUPICh04cIDd8LabWDMWPd53733cmmuaOnDdddfe0bFi+eMoMMkgDkOeNVkSDcQVECu2wtJaaMumr3zlKw9B8x5pbGzYh1w/PORAoWPlxS+9/aYb76ZVo1MdLpaw/KQKtQw37NjeuWplx6pHeiPpcKvXPu0a0LPJFGButJptScgey4IFCwoVHrchFg23wIHdfzbve7rXPq+EnROwkgfZ1TOpDJBXCW1oQnhJpvAMD3toGmIlpjzinsVLFzb/j42Hf3bHyR8ZTlYQVvSXZRb0uSq88xAn9e3ctVswgaBr1qxBeCrI461IIsDPy4YXLlz43Pwq+/H+nxgRN98TSfv27+9ZDIus/OjOOz4JYibbfLZjpXHkMP0P56ovmkkhC/atH/7wh/8OLXgFdChZ2P6Tt/zcnYGqrGJra9v2xlnNvW1zWkcxeyx76qmnPnHLLbf807lrxanf6bwS9lgz2yrlY1bntNf6HO+RobXUP2zq3IJFeD9CVdNVh7sPXQznqwqWuwLkccCZ4MXL0G1qoMqb9Ps9b7gCFd50Hp35/mXLlu0jyzvX53hDa4mKrUksEpbmzJu3Z8vWrStWrlr1KDzzSTg7Z+wwnXoXv/GZyCWUEf5zbnzppVlIiPlR+I1l26oFcVVUG114xwVB2LMJy9vXLo11DkWehNO7denyZXOqa+sjyL1//f997atvHQ+OWbPZDMUWyy63PRcKRWm7T3L1/+o4kipY0bEuVPF7vvnNb34Huvakug66WoNVTkPL/ges7He2bNly7RWXXzmJi18whIWza0RiIY9Ml/LHx54IzGufG+7ouOQ51BZfMG38y874uycsPezSBi9p3/Gdwwnx17/+9eeRtFhI+XlKKNQEqlAoo2UuumjBDujkE3q/SAM77vv1b7+yatWqPlRwjcNrP2mhBt0bdZ7xvpgiLmi/aOvBA93Lrr3m+nJvNG9s9ZhnNKB+uoO+osKqjY5OegcHB72LFi1Sn/nT0y6sBLCjgo2Wwl9wpD3phsanC8SF+D1ZNqUSyVgKAX84dBV5WpYim4US4qZpxB3DiJQdd6lGXzyHRZQ5H/7Rc+VNN910D3TeVC75FA9o8Sj+Yckvx8fHjciW3YjEUPUpfvWsnxaPpzwbNjzwcWCAHWW6RYqHP/ro45dRavas3/w0bvCmIuyCSkuivqbmEbWQ78RiuVHEeIOoUppE2eFkbV3gUGWlZ6o+73UHCkYszz773C1r1qzbj1hlanGD75SKjY9dhqwpShzziCJs2PzyxnXZXLoKUmFqH9DzfFS4HdGXt2xesGLlxUaECVlba0sxEpq0YEWHTtjz3Df89mvXXLp3xYqLb0P10b0ouHgUVXzPoz7rlVBoIoW02mvpzu5wyrV/PFZ3JKl6YFEbqDhl+fLlT0G7Tousf/HMEXx/C5IVCVjaJsQ5aUn3eT+g4S2YaRLI1qWgtVGMPQB/q0A6/oL8d1BvCg37l6xYu6CRdGr3/tHkjydCkw5UwyGtldew/VFstsvG1zLvGhqvv+22224lrYsiaktzc6sRy6j30TRJUuJ0WIbiZK0vno1/4APvv+sXv/jFZ2trawbwd7LFZT3lFaOnc9+TfsegFb/4pS98+WMf+9iPSmo5jahJ/hvf+MbPka6+oOLFx57jTUfYYw/eXuskovwVWXpjGfdjjz121eOPP34dCrlraYk1JRqQZDD09/ev/vSnP7XlpCQ4wQkgZ2z38GTa5XJne3v7LkV4bAxFy0SMHAqXz6iY5bTb5HOk+yPpwUceeeR927Ztu2RO29zDSImPtfjtF+QOj+dsiczpAnquv9cTzrqvuuqqDVgVuxrJBTNVkD355JPYl6Di4K233vrJJUsXvdBYIZ22h39oIlUJOWC99957vwoH7lcIldGGGnn8s71MoMp/eJZTPO16gzPF6kgkS5GBfKOXJ3QuyONNa2FP1Bu0UAHLxUVUzJdQcofim6ndZ5BqzWEXxeiZkJXuiW1Gs5h26xPx1Jxnn3nu23fffXcLyiCLl19+edeXvvSlzwVzWleNhW8rcs4PEPW8DZZTfVidsK9DCgUyxdWXXtIJMrUhLmlC/QDK7SxZ1BVE8fsZ67p9e/Z4H3zwwU8cOXJkNq7np3oGqhbr3LHDvOmll668/vpraUvK0Kl24JvtvDdVWOtUOrfZLSc//vGP347kwBY4XSPQdROYwg+gMus3WIlwWpsH/+V9586dm/3whz/8a6x/ov97xpfjYKdBqs/1IBKxkNZdnUo736zn6OAcp+eXNVeN7B4Mfer+++9/J4jkbW9v//O6dev2tHjM8TMlCib7CBYGhrFTTc6HOl1a1cD3ITDJClZKpFGMMiM7VZ9pOy/U7+uEPUHPLJ7lD2Id1V2Yro2oyC/ODThmxItvrbKW9w1E0pADYyj1rcPGaSaE12gHxiCq/reiOOeCdXguBBLrhH2DXpjts54Va4dyxtiHbv7AvXf+5CfYh8LsxKYd+UtWdGxaf9nlLzRXmo9bfHMhkOVCaIMe1jpPvTAUzrtRj1vVNzBYh7VSY9gvNYht6i/I2Od5gki/7YWIwFCocEHm7C9ErPQ26QjoCOgI6AjoCOgI6AjoCOgI6AjoCOgI6AjoCOgI6AjoCOgI6AjoCOgI6AjoCOgI6AjoCOgI6AjoCOgI6AjoCOgI6AjoCOgI6AjoCOgI6AjoCOgI6AjoCOgI6AjoCOgI6AjoCOgI6AjoCOgI6AjoCOgI6AjoCOgI6AjoCOgI6AjoCPzdIPD/AbYRKKQisyIfAAAAAElFTkSuQmCC;" vertex="1" parent="1">
          <mxGeometry x="124.56" y="230" width="75.44" height="50" as="geometry" />
        </mxCell>
        <mxCell id="WvZ8iHgyDvl_fd5CZrON-2" value="" style="shape=image;verticalLabelPosition=bottom;labelBackgroundColor=default;verticalAlign=top;aspect=fixed;imageAspect=0;image=data:image/png,iVBORw0KGgoAAAANSUhEUgAAALkAAABwCAYAAABCStEgAAAACXBIWXMAAAsTAAALEwEAmpwYAAAkRUlEQVR4Xu19C7ilVXne+u/Xfd/7XGeGGYThMgxIDMUkJhSa2NRqklZtTB9JJchFUAygggiC3AqPQAUUVELSIKmCpk1NGpsGbEnTPgIGEZERkBmYmXOZc9n3/37r+609Bx5aRmbqDJwDa8Oec84+e//73+//rm+93/t9ax3GxE0gIBAQCAgEBAICAYGAQEAgIBAQCAgEBAICAYGAQEAgIBAQCAgEBAICAYGAQEAgIBAQCAgEBAICAYGAQEAgIBAQCAgEBAICAYGAQEAgIBAQCAgEBAICAYGAQEAgIBAQCAgEBAKrDgFp1Z3Rm+CEPn3152V8TKvImdbv+cwyzUyVWHDj9Zekb4KP/5p/REHyQwz52Z+40pJl2VRV3cTXmiJrY5qmt/C25SJjbpIkgaVrviJL7SKPn73uygufPcSn9KY7vCD5AVzyD330MlUumFLIkqrJmpzkmQSSMhU3EFhlkqTicGousRKIXDEMo2TbdkuS1THbtKY1w5wGyeuKoji6blZdx7Ja9Vrue4P5PI1mkyjctmd+9w2f/PiZwQGclnjqqyBAF+VNe7vgY1eUFNtuaqahp1msWa6V6IoaLnc7cRylSp4zAzy2wV9EYbUcJ5kjFUw1LVPVNUVTVL1Uq9XWaZrRcl23YbuuqhtqAs4XuEuyouB/RRv6gRqHke4FvuR7gdYfDIpOZyZK0ngQ+YPtUTD4nqErT5Uc6+nbbrhcEPwgM3JNR/Kzzv10qVSq1B3b1aMo0oPQl3VdV7IsSTudHvP9YZCmeYGfs1Zr3AERlTiOw6IoGBjaNC178zBMaoqmugjMUrVaVhVVjiRZNly3dFgUJY7rVBuaajqOU7IJe5A3M009wVFDSZJYt9OLPc+LgjjqB4H/wmAweD6Kg0W8xyDNsiF+14vTRMsxYsIw9EF60ymXxnCcqqEqmq5Ji0WePC0VycwXr78iO8jXVxwOCKwpkl94yXUSuFLyvbCZ50WtVK6eljLlLX4YyCC51WjU1CgMSTwMGJOz+fnZF+I4Hei6mjWbY2N13CArChBNLpfLUyW30rAsx8QND7M4y5PYsHQlTVOtyKWxdnc4VhSy0+sOGAifLSwstJMkero/6D4ch942vE8X77tUFNkSCL9oWrpfqVRywzbi266+SCSRh2CI/cFFn6viArt06CTylv/k1utfdeZbMyT/6EVXGablnJjn0tHeMGgUhbShXKltDfJiApE4R+TULcvUXNuRq7WyDC1MkiGoVqsJSBshgieIpCE0dITnZpAjWRQE/WFvOBcn0ZLv+7uHw/5czjIFxJ0A49+9Z37p/YGfMJLbU1PTrFarPslY/u3+oP3dNPaeYVLuIap37/ujz+eH4Hq+aQ95xscvLzNZbWLCxcXLSSqaikppkGoahrXetKxNRZ7L4bD3qBT3H7rz5mtmfhZYa0aTm7ZljrUmftGxy1shfCvI/SzDJomsLCHRKzRNk/v97hBkDcIgjgd9D9/6y0Ov/xyIvRz5wTzI3kXIDrIsC/G7ITifQrakilRE37r35mIFqI986sb1/aFfLYr8n+M1tuNYzFBVVi27gzAcblOrzra7/t21s29aFh7ED37mJ6+RkbzYYRJXEXjGMfPWvVTd0GyNby2XK2OlSq1u264FXWqBAwZmXVc3DCeJ43zYXTplaefTJ158+TW33nztFbv3dVprhuR5mvXb7aWvd7u9R1TNakQhBeY48MPICyCC4Uzky532QFXkzC2XWKXkZkHkx6qihPfc+bkXCbw/1yeK/Bl/gAiP6I/ZgGEAMQwM0uO6ZZsyjtnen+OI57wyAh8471MaonNFN8yxTDI3aoa1qVzWjyyXKpsrlVoFeValXKrWgLttmpYBeYnZVGYIVkWA6+wHfXyb5EkQWtVqfZM/qG8+7+LL5++4+dpXlIhrhuS33HAZEXV57/2Q8uePb/1c/s/ed66iSgokv86KNGf+0IdSKaq6qk2F/iA+pCfwBjv4ez50oa5oBgxTC3paH7dse1293txSrtaOKdfrG2RVb8LVqiO5x1Ms2LEK5mZZTeMkj6MkzrPIz/PUR1TzlpeX2otLexZ67c6eyO8907CVZ4f9xR9+9fYb95kDrRmSv+bXPWMI2o4W+CnTZJPr8sCPWqbBxj0v0HE+4Wt+TmvkDc/4xDVaEEROISlVy3bXmaY93WiNbR4bmzjRcuwmkv2SbblV5FJ2IcmWhOIBCC1BGub9nheDzAF0aADd3e932vOd9vJukPo5zx/sCgJvd5pEA1mWepqUt3cutJe+9Wdf+pkztSD5PoiTZ6wlF7KhSjr0uMVcs8TyRCorprLR1C3K7g8ayf/w0uukL9zwmQOSVKuJ7x84/9OSrhvgreOahj1lOe6maqW+pdpobq3WmuskSbEN0y4hd7QxKapwosglY34QJHketdM0Dv3h0CN7N4QW6XW6u4a9/k+Gg/4zWRTujqNgHuD3vvFHV7+qk/JKuAiS74MtSHb8JFVlVDFZGCdMCSNmBzFzS84E6jsTeNnSz0O0cy64AVJTGS/Xqm9vjTWOvvamP/3hju3PPnj3HdcetMHz85zfz3rt2ZddJxm65aS5ZDmV+lS10jgc7uxW1CE2A5tx23UaqFdUEJhNyA49Q5MOLN88CIIUTuyQAgQsWQ9Reml+fudj4PbcoNd/AR7YEpkDWRovKAUb3vvFyw4KFoLk+7iahVz0ZU3KdNXQ4ghhBy1VYRYhATVdFHYOx8tgJx747fQPX6Vapcqx9dbku8fGJ96JqboFS9NQC/NZzWpHZ15w7f+8+7bLowM/8qF7xYcuugr5nwv1VrFNt7oe9Yn1qMEd7bjVzbrpTkJHNxGcIaaZhbPQQdI8iNMCUTnO0zRA0hhFod8BydudTuf52dnZ73veYGcSBctJMNgtS4V//1f+7SH7zILk++AGItEwiKU8w7wK7cjg0aJalDLYldCZ9ha87Nv7S6vTP3yJmReKG8WsJJvuiccc97aPy7p1TBSnrSwroPcxdSdF06m2zgx9VTr93Msf+tqXr33Nk9vTP3Y5ziS3qeaAWkFh2o49ve6ww8cm1h3bHJ862XLK40jEHbhbVVnWq0mWQ4EYVpJkKJaFmYp8USryMPAHbfhegyQOekuLe57tLi/9eH5u5kn0SiwC1y6KbsP7vnjlISP1/31dBMn3xVRZihGBckM1WJbLTNMNBpuFpUlek1lx1FnnXVW7646rOvt6+QfOvMRET8tRrebksf3BsGi0Jk+emt5wMjoENqCoNR2B3FbFYG7VRWIrM2/YrTz5o8dOiTzmoZOACPB3+zuIfp7nnX7B1SVIjQkY0A0cp9YYG9/cbLWOIbmhGma55JYbkqKWoKutDK3BaZqp0MlKkvsY8HI86Cx3qZOSiOv1ewt75mcfW1yY+1HoDWfR34PA3W4bmtT71levf81ILUi+n4yAXoZHrqS4sNCTpCm5rmRRkjjoujoySdk6HOoVSX7uJ2467dhjTji/3hw7Nk0LS9PNSq/vV8I4lebnllhaLLG3bD6KVRp1hqSLKSZsykBFkDQnC0U9tdcf7Hrvhy+dtTR51713HjxynPXJm0hqlSEtXDTjNJ1Seapeaxxfqde2OCV3nGw+FFxcWdEomqsYpDp6ctQ0SpEpJlTVjYski+ByLKOO0MHv5tvt9lPLy8s/wc+7UV+bUxW2bBna8Bu3X5rsJ9SH/Gkiku8DYkWSkQOliLdUiFBhkRcM2T+LQoOVHGdTkhZv/633n7vt29/88sv82Q+ee/URSSyfOjPb/tWFxaBVb4yxXr/NnnjySeaWK2xi3Tom6xqL4oLNLSwz2zHYvff9GXvy8cdZuWSxt51w3OEbDnvL+/bM7PQllm374PmfnYGzMD8Y9hb+89fu2O8Grt8773KTSYpTQp8kPoTp2JV1zbHxreia3ILq4TSquBVEaxcRuiyjFyRH0RgsVtJCkgIvzKjaUkh+lEQRKsRJ4g0Hg97y0g6/39mWRRE6J/2noLF3YdCgAS3q33fnNau2V0eQfB8kR7RL6I6+cC5XUHtGxVPjujzJsgqi3jG6AYYy9uLFPf2syxTLcE8rV5rv9HpRq4DZm8RdZlg2c+wqe2HnHAvw7HUbD2N+GDNVV9jc3B6GdgV21jnnsunxcYapndmGetzS/Ownm/Xq0Pf6c+gx/4ennnryr9/1r897HBG2bdtW+ud335L/m49/Vs7iXEXwtUDYMlNkC8G3gp/Hbae8AW0PG0pubTOkVsUuleu2U2qhmAVSSyo8aPjSMTiKbh0kHmhy8zGkcbgiHg6Hg06/N4c2ie3w9hbTJB6iHXg+DrwZLU93o2Fz7u5bPrNPqXbIQ/MBvoEg+b4iuaJEpqmhjQsxrkABDv9hEQQkS8aytNBRfl5XLTvUfuutHKLi1NYttfu/VK9OH+GA/0M/ZnvmFtjk1Do2OTnN5uaXWHupw5xSBa0CBqu2ahg8CjviiM0gt87CIGFeP2SJbSHCV1tBlLempjdumppcv2V63cZf2bHjuYfm5mceQWTtXHTNl1RYdLmqmGiorEwhOq9HQjxml9wmKod1DMC6rGpOnsk2Nbmj3qKheJihtx0dZ1JaZCn6Inwf/3oI2v1Or7u7Nxjs7Pf7z/eHw4U0S9Db4y9JRdZJ46gr4WfbUIb33H71mvPzBcn3QXJceBkRHMmSAUIqSDoV0BxhO0UoVjDBq+ZYOAwreGiRDvHRP7yx2h/4p87PLZ40Nr6pXrCModYBqSNBmgRMs0wQ12ReFLJer8PQ4cuqjSr1YzDd0KjXnKEUAqcSr8TAwjuyZrPKFpb7WAOqo01p/BdQWDlqszd4P7omA2oXjsFyFdmhblgu9alj5sE6Dgh8dFAHYVyEgyAzYIYkaQQjx+v7vtfB+w3yIu0P+72di0tzTyBx3A47b3ev19uTsSJEj06MQRSjrx7dm3Hy4L1fWHOkFonnfk51cFZwndE+Ae0soyAEApBVzpu1yDKzdGMS4nrjBRffujgY9JXZ+c4xu2cXPgxreNMT237MalWYFXBN0GjEvLDHctzjDAU7KQPZUUU1NcwKKWu1WpBDI8UDdcPQEcnQacdMNCWhBw3632UqBkgh58gJQkd3a46FVc+08MOC1MDSOkgfRH8kxThN5i93+IBBUUZCW6o6C+8uCMLtqCg+g8efD6Ph81DXO8LA21mwdJDHvn/fl654ze3K/bwMB+VpIpK/Aoxnnv9Z04vSjRmTSuSRJxmMggJQgbQkVygdRb95w/OjX/f8foyk0EJr7nuiIp+2KxVTIwJrjFUqJTY/P8/MwEJ7NJLNdIiobVFTDMPCCqbjeR1EdQkLR1Fa5WdC5W49CFirUWOtySlWYACklPRGGZJfhc8qGWYHCaTOURakpBhFK+Z78B49Kibi9aaFn0O2c/dzvfmZ+f+K2WcbFkstoKN+ZxL7O/ExOrqheP/h5otXjQNyUNi8r/zqUB58LR779LMulcMk3xJn8hWSarxLUW0nIoNYsxAdFRgdKSu5NivZTobW359gmn8uiIMYWncM/DwSnvMktfpCKGOhxRSbmdnFSpUyazRaILoOPV5m1Tq+VzReZLJBeIrK1MpLx4fiYL1Om3W7XQysgqFUznMBrG7iswgeZFQmh/vDH6cleOT6oNr4YkswRXKQmsPf73Yhs/vb+93eD9tLiw/DInkBUxSmlHTWG/YWWRb17//KdavWGTkYHFozK4MOxod9tWP87h98woEO35IVyu/kkvZeGNdUtgapICXIRiQnAlIFFRJWgx1IelpSpbiCqIvET4NfJ1VqVV7BpOeSBicyUi80ERQSmh8HzgxDFyk/nSyN+O+J5OD03uelnORwOVBJjBi69jAYbIYVMfz3dGwaGNTrThcQ6mX0/d73xbtz6TOSQKMBhDcnW7AT+v12GAX9bnv5qfk9u/9+YXb3j1GGH0CHL+lYNgipH9zzpev226p8NUxXw+/ftCR/1786G/yTsULZbVA/MzRsA/dpNNMdp+j22yVZexuayc1SpQoL0GGOW+JaGQ0c0MkWgxUH+QLZgBBqQDNTRIW1yGDEcAJKIJpCZW7ICkpCVRkyA6MFzgzD2mr47TFkD5JOSJU8TXg0HqJnHVYeJyXaeRkKLazd7SMBbbFGc4wGEkMRB3LERmSHrgfhaRBhCR6kTAotHvABg14Sru1pENLPfNEBL2ohYOMOQhfYKcCHa9LDAureoI/q++LiNiTEPwhCbwaLsefjMBhiwVmsK0rnqzdfsaYXibwhSX7+xderg4GnYkkVrQutogl0DLpUx5IeciEcLPikDkAbUbFaqzWOgp03gbVV426l2qiUa3UDFpwkY0EzqEokR1zkBIXdAGKZIDgiLyKxBCLJ4DqqoDziIr5yZ4QcGHJVwDxWgMgkHegrPQd91jwxxBI9tAhEbPaFnzKv1wOpPTgicFjQ8Yj+GGofYF4Qsql1G7jUoUFG1VeSM1g5g/WmfPbACqgy0wwV0kWD3qetX0aDTIMHT9GfzoUGAkV/ntjy/hIMLJAdC7Hh4wcYbHGMdbMezquLnQUGGHA9nHyI5FhamJ199Pntz/2POPIe+9Pbrvy5Oi9fr6i+5kj+W+8/CwFY1XCdDEQzrPZza9gExUS8wuIS3Ua/UBUaeByzM+o4eh3r1TZiL4r1cBoq2F/FRtmaCicapndqGUEghg2BjA5R3ISMMGCqyFDHUgxpEYNUaEBicUpSYhQZFewfROQGJUBcOIxwSyJIDiItL/tHCSzCHkvQmou9VkDwCKvKY5ApYpHvMehjLkOI7JHXZ1qO3A/HoZkAHwwxn+YA1FkxehRE62qtwaqVJixHl+YGTB5INDGL5Bh0RNwykltKYknb064ZZeQDFO0tPEYzj4qVTXRskjMU0fltL8mJ6DT4yK8cVXUxmDEQaEbig0LGp47jNgpSMzt++tR/2rXjub+Ss/BHd9921evWh/L/M1BWDcl//+wLUa7QVBDKRRRr4HvshaK7mNZRdTRstKSamOpVXEC3XK62EKWmsfKk5lYqUxr6QKm/mchLGR2inIOLRbtaGbhuGi407A0J5IU9QTpVKmg7FmSRWSjnRYQLSsVJHpfxC/jPSQFdTr5zOvT8ABE4KmRFR4QrEO0UJJ+qP/R0+M/YviLiGPb7Qx6FKQKT9saIw1sWzEG1E0sCsKpowNC0hEasPgju8cEARcD0PGYGrfaighOiv4qiEH1P2p1kkgsLEjMMLEfkBrRiO1dAViKshqo9efcYFvz1JKOxIkFDZRaDw0FyTMlvpVxlGNh8NiAZsyJhKJHNUL2liE+EJseIXByaLTDC8D4YbJBAqG4i2YZ/X6R7lmZ3/sNTP/rBXcPe8kNYN7tmKp6vKcl/873nEJE1gA3ZoLUAuAo/eSOag1ogCWkIF+v+DkP0bLpueRKNTS6Iy7f2QZRDrMX6EtS04UoYmIYlRDUH+07YEkIRRaqRTKCp28DFHMkCimIUhSmKwUJDNTuH5E18rArP8ViGKB7QFhUR1vhDMsSorKjQwn34yl200D1HpX1o1Fm8juw2BFfVwQFUuCjHYnaYQrI5gcSwim3fKpqqyzAz2J7ZOa6xU0R+7HOIFQIeQ6GcdzEO0cdCvSw4BzbodzEYRpvf0GfgdiDtNsdAYjgxChwdlOcRqZEPYDES8MCItUBr0Bn/kN6mzwbhzz8nOS9EdnqMN5ThZyw949YntScAZzY+PsZauNMOBDzxxX+EE3dqQO4MA4ywoloAzy0wO+FhViQxs3U1KVL/x99/9Ht3PfHDR//9A//xdix8Xf23g+qTn/GxKwxEPjARDaRueQplZAuRzcLiVRcg24gOBoDTsOpmGpvwHI4LUMOKbdetlB3w1sB10aCbDcculRTd0GkQKKqGmgyYQBcAkSfF1YXKJbsDWgOP41u6nGgS4pqXboqP6ASG4b0KENdHJbEDfzlFl9wQ5MPuFMMuInEPvxskSbyMnQC6mLbb0K4xLLflIssDxC8iv++Y1iBHSRskiGn7N2zKaRZprHUXBnZeyM1Gc/JE33JgHY69FdPMZLPstlrlo7AqhtpyYy5dlpZT5g1wltxvR/JXYP9EnDjW1vEK0EqiSp9kFJGJVaPHV+4vdUKOyMvNE7wcigJRl34a3anHhm6oyXLih5BFRFrsOMOGSGbpvLAFBMjcwECC80MSRsJuBOjPwYEgVeg9gTCF9ILbNbTbGENTC30ezbWsEw4/8tgz4iQNbPeS+799z40vtjWsVrofEMl//8IrqRBI0RTSQSoh6tRkSXMxlVfw2DrAXHXj1EHL2xiIOoVp30BfRRmS2UIwtkF2EDlH8NVtREwb5CVJrNJlhaTA3oMAkoot+Er91tgAAl8RaaB/Kami6MftM3Tmo+IMnyKLg267j2nVA1Fp7yCyyWiZlT/sD/o4bJimyQKIuw3k6SHRwrLCoItI7CmyDNEue4aazyahj9FRRPfdfcsB+8Wn/vZHvue4lamJiXXHoRHqCMdy34ot6U7GoJhwbL2uyCVIlS7rgSgxJgPgBW5qxCcEWOhl6u/iWgkShXQ5MZe+knjiKe+I+LxnBp+fojcNAgkEHEVvIvvI8VuJ5vwrP8zIvlw5Lg0Yyh24B4+gwf13rMzmMx9VoTBIKK8gSUP6nBJnibJgSrpRjAohrbDfiWTZ5eMOP+LoM5PY24kXPbhayb1yXv+PXDnroquxW2veAA/Xo7e5ihUxJUCNSKw5EpORtlkNaGLs5aeXEH2r2OwHiZ/BtyfGQXWEEAuRQ8fUR1+x8ZGu8yQGF4YAp+9Hic/IhaBLCRnCp3eaNskao63ckLhRqZk8L5ILIbm86LfowQkIKCIjgYNwjvtFFLyA7GkPtXziIgampqOnLicd3cWWHUNc4kVctHYCT+wbX7n6kFb4fu+cz5lo7tuE/OBILLbYish/fKVS/ceQPWNYPIDTzOGgeAxldV5UipMA0T0Y6WoiLSQLuSdctpCmV0BAyBRMjUw17JGEQdJJz1lJJrl+p0HCB8bocvLiEml8fEUs4dhS2Z8iOprEkcTasCWb6J2p82tCxSs+Y8DOJC1O14E7SggjOV95TBodMw9VW1PYlBhUulrML8xv/+Zjjzx4+V/f92UKKKv29rJIfsZHPmvoWumkZmP8N6rN8RPscrmRSdhbG4kfiEitEho+K7btghXHJNpze1SFw0UB+bi/u6KBqf+a8jwKknyKxAXgFUMieYaQQPEBLIVfG2qhHIAI2J0K/UFJksKvRZsGpXtBiLWBIG/ehe/rQ8NuhwWGaOy3MdP2G/VqNxgOljRFQhFDAVuK5E9uv+F127Lt61+5khbebqP7O3/nIw/omrW17ZQQ7eTfRjA+ktfsSWkhecTMA+cFQ5wSSPqPS49RJCcJQXdyW1YsQXJCJGr5xZ0UCUXpkQ8z0uL5SlTnP+E3XMKMGso45vzIhP/oMYrWdL1I22Ojpr0BBz8j6HA7FIOOEmhyk7BFNc41ZgX1fmEKolaDTC+akqIfDUeKtudY1beXkbxSbji5rB+H5GarZZa3GEa1mcsyDyEUPbBZMfdZX8zGodMgSQCGR1YGjyh8quMVOVr3B1WOXRnpK61AwOMpeEvbt0EbhyF08AAJ2QtR6D2Px9rVUpnkTA5i+9i3Gx6h5lfK2jIiH1qbl5aUNPGm6mO9O+++5aCs4j6UV+a//cWdlJQ9/I7TPjhfKtdCyJhzQOkWUdNEAokulL0FpD4nLDfHiZ4UpWnWwzNGNH0pOq8klCuE5ZqZJ5vkz9NzVxJQmjVHswL3yamFAIGIJ6m40TkQwUPP5y2/A5CZVijRkKEb2ZgUoGhAkIwxMHtQ82Vv4CFpgozE8oo0yFT0x+jYJKiOl6xq//xlJI+jKPVCf3cu6T1Zc4elXDZ025WQUhNxC8jnQoPvSsiS9oUHHCpFCmHh+yh4oGMPDZ3egMRxCpsMGA4G2FSzDZIPEXmxu6weYnrEjrOsj0WvHdhTM64a71aVoKMZSazn/ZTysHpZz//41ktet4h8MMn/99+994V/+p6zviMx6xdw3F+GrVil4gxhOirOkKtJ5BoFjxXZMdLVI8kxutPvKd+mBHEU8UlSjHg7Ghb8wuyVLVzb48bL/Xg/ynN4ABp5M3wGpvfQdcgmajcg4HkhCcfi7zEaJNhQiWVUQeWtB+ABzjvGcaiINOz1Qq8/WPUtAC8j+R1f+FT/7I/d+Egc9K2dO57eJc9YU9hxHi2lkkbg4cNDYvCGINLMCNNhWyniOcxf6FUezgHEGLotA2BY2JpGwAX2cK+Drz5WpiRl16Q9vbERbRre9fnPvCFIvD8DAp1/P4hj434kmsgJ5JMlOcefU8nAIir9j0i+0rRNyzM4yahiSt3lFKV5ZKVK5YiE5JVj5yl8HUXyFY1O3Yw8faSchx+Q5NCoL4aOh62l+fdYdIyNfQa8+zGNMeNCilDySdd4JC2pBQHCBVJFQV4wQAGLZnBqFShyFK6QKiWpT4OELF5nfzB4PZ+zT5/8d8/8TAVLocayvHBh1ZlwPRBEoBqLIsWFKbCxXRcnDrOuGECFhF/74pWHNKl7PUE6GO/9jlP+pek6lbfrmv0vwLgTUJHdHMRhJYiGtqyQTUd6lwhJCSLkBXYJIGuvANHwJzDgkcPX5lJGQ3Q2eCWT5ziIrETAkYvy0pmS+qEITok9kZ5+T5VZ5DeokrpoIxiA2OjBgRdPbiEdi+Q178FBpOYRnf91mJHkoRYALCaCfu8j6aRCUZSYWvq/TS246bbrLvqrg4HRoTrGa1oMOlQfYi0d99R/8oEG6gO/CPVwCma/w1RD3Zzm6QaE4AqIZZC7QToZW3FDplPHIvQ7vpfwFUVXyAYDhCTrEeGFOhFR4eR2I0hM/TIrBSIuSvAm5KbwSM7jOu04kGJVswlLMOADhWxMiuIKngcZzx+jn6mARNXbHA4LbFce/UnmoI6GXGuQmKa65Fry96uu9NVrLj17VZP8gHzytUSm1Xqu//3Bb9DOvH/zj37pXQ8jam4IU/Y2/HykJisbIBMOA03HsRtEOS8SCxqYrFkt5bY3aE3FTcgP0sfcLkekRhDnTgrXy+S6UNchFZm4ZUuvIo0zUoa0+Q8lkkRwuFjYqXcIQsNXkF1mGtT/gFmDvmqQMfg9dUlSg49R0iFPCrQudBkW5mNLt8Ud+BNLM52l/n/ZGQ0eWa1Yr5yXiOSv8xU69vhflujPg0DbboBkmQCVJ1F3WK/I+nrkg9Oa6UygKDaGvTKxyY/hgoJoWVH3ypW97b57k03eYci9yFEvDBKol2oT+JzUpwJXiw8IWne6MDdPUbqLv0y3XMd607GxZs1FdxsGFi2D4sca9j0uh/D8cPv2Z57w/e5fQo8/3KiVdsbRcPv/+ptvrnqZKkj+OpP8ld7+lF97NzWn1VEv2ogWkk3oiDhat51NhumMIz2axACYoGIc7tR0xrUzr08gkeU2IXQH7QIw0umjzsMVXU5VU1pTSk1i25979vmF+bm/wDzwAFqCkmazfgTaMY7E62hPlgaq2A2L9w9pClZDBbOzOx8Iov6d3/nWHbtWIWz7PCVB8jVwtTZv+TX08uhjllU6zLbKW7FH4bG2Yb8F/T3TSFAnYQyU0JrLPcQVr5svr4MzQubiSxbkqIWAahho/02f3/Hs3w567ZuyPHoci0B8tOriTztYFuxF/GtVieQYJBNwzEqua80t7Jn5uz//+q29NQDZy05RkHyNXbFj3noaWmTsCZBxCyL88ahjnIAOyEm05bZo/0L0A9UQym3uMe7tZhxVLkcuCel0Sj6pf2dpaeY72MTosicfvf8N/VegReK5xki+7fHvkgYmubDrpHe8+yE0A44NmLoJFmALxbppODdHYseuIxDpx1Byb4HR9SLNLAmODfnbPLLjj5Tgny7+uGMvLVt835g38k1E8jfY1T3+pN8sw2GpunZpE/ZePAnNYluwom9zmmRwalSH3Bm0UNBfdfgp9jO854G/vGNV238H4/IIkh8MFFfpMU7+1fdQW1wdf0ztMCSnh+PvP08iQTXxWILk8ge9bvt7D/3t19bUUrZVCrU4rdWEwK+c9r5Rk4u4CQQEAgIBgYBAQCAgEBAICAQEAgIBgYBAQCAgEBAICAQEAgIBgYBAQCAgEBAICAQEAgIBgYBAQCAgEBAICAQEAgIBgYBAQCAgEBAICAQEAgIBgYBAQCAgEBAICAQEAgIBgYBAQCAgEBAICAQEAgIBgYBAQCAgEBAICAQEAgIBgYBAQCAgEBAICAQEAgIBgYBAQCAgEBAICAQEAgIBgYBAQCAgEBAICAQEAgIBgYBAQCAgEBAICAQEAgIBgYBAQCAgEBAICAQEAgIBgYBAQCAgEBAICAQEAgIBgYBAQCAgEBAICAQEAgIBgYBAQCAgEBAICAT2F4H/AwZAApqz3b/pAAAAAElFTkSuQmCC;" vertex="1" parent="1">
          <mxGeometry x="200" y="228.95" width="86.07" height="52.1" as="geometry" />
        </mxCell>
        <mxCell id="WvZ8iHgyDvl_fd5CZrON-3" value="" style="shape=image;verticalLabelPosition=bottom;labelBackgroundColor=default;verticalAlign=top;aspect=fixed;imageAspect=0;image=data:image/png,iVBORw0KGgoAAAANSUhEUgAAALkAAABwCAYAAABCStEgAAAACXBIWXMAAAsTAAALEwEAmpwYAAAkRUlEQVR4Xu19C7ilVXne+u/Xfd/7XGeGGYThMgxIDMUkJhSa2NRqklZtTB9JJchFUAygggiC3AqPQAUUVELSIKmCpk1NGpsGbEnTPgIGEZERkBmYmXOZc9n3/37r+609Bx5aRmbqDJwDa8Oec84+e//73+//rm+93/t9ax3GxE0gIBAQCAgEBAICAYGAQEAgIBAQCAgEBAICAYGAQEAgIBAQCAgEBAICAYGAQEAgIBAQCAgEBAICAYGAQEAgIBAQCAgEBAICAYGAQEAgIBAQCAgEBAICAYGAQEAgIBAQCAgEBAKrDgFp1Z3Rm+CEPn3152V8TKvImdbv+cwyzUyVWHDj9Zekb4KP/5p/REHyQwz52Z+40pJl2VRV3cTXmiJrY5qmt/C25SJjbpIkgaVrviJL7SKPn73uygufPcSn9KY7vCD5AVzyD330MlUumFLIkqrJmpzkmQSSMhU3EFhlkqTicGousRKIXDEMo2TbdkuS1THbtKY1w5wGyeuKoji6blZdx7Ja9Vrue4P5PI1mkyjctmd+9w2f/PiZwQGclnjqqyBAF+VNe7vgY1eUFNtuaqahp1msWa6V6IoaLnc7cRylSp4zAzy2wV9EYbUcJ5kjFUw1LVPVNUVTVL1Uq9XWaZrRcl23YbuuqhtqAs4XuEuyouB/RRv6gRqHke4FvuR7gdYfDIpOZyZK0ngQ+YPtUTD4nqErT5Uc6+nbbrhcEPwgM3JNR/Kzzv10qVSq1B3b1aMo0oPQl3VdV7IsSTudHvP9YZCmeYGfs1Zr3AERlTiOw6IoGBjaNC178zBMaoqmugjMUrVaVhVVjiRZNly3dFgUJY7rVBuaajqOU7IJe5A3M009wVFDSZJYt9OLPc+LgjjqB4H/wmAweD6Kg0W8xyDNsiF+14vTRMsxYsIw9EF60ymXxnCcqqEqmq5Ji0WePC0VycwXr78iO8jXVxwOCKwpkl94yXUSuFLyvbCZ50WtVK6eljLlLX4YyCC51WjU1CgMSTwMGJOz+fnZF+I4Hei6mjWbY2N13CArChBNLpfLUyW30rAsx8QND7M4y5PYsHQlTVOtyKWxdnc4VhSy0+sOGAifLSwstJMkero/6D4ch942vE8X77tUFNkSCL9oWrpfqVRywzbi266+SCSRh2CI/cFFn6viArt06CTylv/k1utfdeZbMyT/6EVXGablnJjn0tHeMGgUhbShXKltDfJiApE4R+TULcvUXNuRq7WyDC1MkiGoVqsJSBshgieIpCE0dITnZpAjWRQE/WFvOBcn0ZLv+7uHw/5czjIFxJ0A49+9Z37p/YGfMJLbU1PTrFarPslY/u3+oP3dNPaeYVLuIap37/ujz+eH4Hq+aQ95xscvLzNZbWLCxcXLSSqaikppkGoahrXetKxNRZ7L4bD3qBT3H7rz5mtmfhZYa0aTm7ZljrUmftGxy1shfCvI/SzDJomsLCHRKzRNk/v97hBkDcIgjgd9D9/6y0Ov/xyIvRz5wTzI3kXIDrIsC/G7ITifQrakilRE37r35mIFqI986sb1/aFfLYr8n+M1tuNYzFBVVi27gzAcblOrzra7/t21s29aFh7ED37mJ6+RkbzYYRJXEXjGMfPWvVTd0GyNby2XK2OlSq1u264FXWqBAwZmXVc3DCeJ43zYXTplaefTJ158+TW33nztFbv3dVprhuR5mvXb7aWvd7u9R1TNakQhBeY48MPICyCC4Uzky532QFXkzC2XWKXkZkHkx6qihPfc+bkXCbw/1yeK/Bl/gAiP6I/ZgGEAMQwM0uO6ZZsyjtnen+OI57wyAh8471MaonNFN8yxTDI3aoa1qVzWjyyXKpsrlVoFeValXKrWgLttmpYBeYnZVGYIVkWA6+wHfXyb5EkQWtVqfZM/qG8+7+LL5++4+dpXlIhrhuS33HAZEXV57/2Q8uePb/1c/s/ed66iSgokv86KNGf+0IdSKaq6qk2F/iA+pCfwBjv4ez50oa5oBgxTC3paH7dse1293txSrtaOKdfrG2RVb8LVqiO5x1Ms2LEK5mZZTeMkj6MkzrPIz/PUR1TzlpeX2otLexZ67c6eyO8907CVZ4f9xR9+9fYb95kDrRmSv+bXPWMI2o4W+CnTZJPr8sCPWqbBxj0v0HE+4Wt+TmvkDc/4xDVaEEROISlVy3bXmaY93WiNbR4bmzjRcuwmkv2SbblV5FJ2IcmWhOIBCC1BGub9nheDzAF0aADd3e932vOd9vJukPo5zx/sCgJvd5pEA1mWepqUt3cutJe+9Wdf+pkztSD5PoiTZ6wlF7KhSjr0uMVcs8TyRCorprLR1C3K7g8ayf/w0uukL9zwmQOSVKuJ7x84/9OSrhvgreOahj1lOe6maqW+pdpobq3WmuskSbEN0y4hd7QxKapwosglY34QJHketdM0Dv3h0CN7N4QW6XW6u4a9/k+Gg/4zWRTujqNgHuD3vvFHV7+qk/JKuAiS74MtSHb8JFVlVDFZGCdMCSNmBzFzS84E6jsTeNnSz0O0cy64AVJTGS/Xqm9vjTWOvvamP/3hju3PPnj3HdcetMHz85zfz3rt2ZddJxm65aS5ZDmV+lS10jgc7uxW1CE2A5tx23UaqFdUEJhNyA49Q5MOLN88CIIUTuyQAgQsWQ9Reml+fudj4PbcoNd/AR7YEpkDWRovKAUb3vvFyw4KFoLk+7iahVz0ZU3KdNXQ4ghhBy1VYRYhATVdFHYOx8tgJx747fQPX6Vapcqx9dbku8fGJ96JqboFS9NQC/NZzWpHZ15w7f+8+7bLowM/8qF7xYcuugr5nwv1VrFNt7oe9Yn1qMEd7bjVzbrpTkJHNxGcIaaZhbPQQdI8iNMCUTnO0zRA0hhFod8BydudTuf52dnZ73veYGcSBctJMNgtS4V//1f+7SH7zILk++AGItEwiKU8w7wK7cjg0aJalDLYldCZ9ha87Nv7S6vTP3yJmReKG8WsJJvuiccc97aPy7p1TBSnrSwroPcxdSdF06m2zgx9VTr93Msf+tqXr33Nk9vTP3Y5ziS3qeaAWkFh2o49ve6ww8cm1h3bHJ862XLK40jEHbhbVVnWq0mWQ4EYVpJkKJaFmYp8USryMPAHbfhegyQOekuLe57tLi/9eH5u5kn0SiwC1y6KbsP7vnjlISP1/31dBMn3xVRZihGBckM1WJbLTNMNBpuFpUlek1lx1FnnXVW7646rOvt6+QfOvMRET8tRrebksf3BsGi0Jk+emt5wMjoENqCoNR2B3FbFYG7VRWIrM2/YrTz5o8dOiTzmoZOACPB3+zuIfp7nnX7B1SVIjQkY0A0cp9YYG9/cbLWOIbmhGma55JYbkqKWoKutDK3BaZqp0MlKkvsY8HI86Cx3qZOSiOv1ewt75mcfW1yY+1HoDWfR34PA3W4bmtT71levf81ILUi+n4yAXoZHrqS4sNCTpCm5rmRRkjjoujoySdk6HOoVSX7uJ2467dhjTji/3hw7Nk0LS9PNSq/vV8I4lebnllhaLLG3bD6KVRp1hqSLKSZsykBFkDQnC0U9tdcf7Hrvhy+dtTR51713HjxynPXJm0hqlSEtXDTjNJ1Seapeaxxfqde2OCV3nGw+FFxcWdEomqsYpDp6ctQ0SpEpJlTVjYski+ByLKOO0MHv5tvt9lPLy8s/wc+7UV+bUxW2bBna8Bu3X5rsJ9SH/Gkiku8DYkWSkQOliLdUiFBhkRcM2T+LQoOVHGdTkhZv/633n7vt29/88sv82Q+ee/URSSyfOjPb/tWFxaBVb4yxXr/NnnjySeaWK2xi3Tom6xqL4oLNLSwz2zHYvff9GXvy8cdZuWSxt51w3OEbDnvL+/bM7PQllm374PmfnYGzMD8Y9hb+89fu2O8Grt8773KTSYpTQp8kPoTp2JV1zbHxreia3ILq4TSquBVEaxcRuiyjFyRH0RgsVtJCkgIvzKjaUkh+lEQRKsRJ4g0Hg97y0g6/39mWRRE6J/2noLF3YdCgAS3q33fnNau2V0eQfB8kR7RL6I6+cC5XUHtGxVPjujzJsgqi3jG6AYYy9uLFPf2syxTLcE8rV5rv9HpRq4DZm8RdZlg2c+wqe2HnHAvw7HUbD2N+GDNVV9jc3B6GdgV21jnnsunxcYapndmGetzS/Ownm/Xq0Pf6c+gx/4ennnryr9/1r897HBG2bdtW+ud335L/m49/Vs7iXEXwtUDYMlNkC8G3gp/Hbae8AW0PG0pubTOkVsUuleu2U2qhmAVSSyo8aPjSMTiKbh0kHmhy8zGkcbgiHg6Hg06/N4c2ie3w9hbTJB6iHXg+DrwZLU93o2Fz7u5bPrNPqXbIQ/MBvoEg+b4iuaJEpqmhjQsxrkABDv9hEQQkS8aytNBRfl5XLTvUfuutHKLi1NYttfu/VK9OH+GA/0M/ZnvmFtjk1Do2OTnN5uaXWHupw5xSBa0CBqu2ahg8CjviiM0gt87CIGFeP2SJbSHCV1tBlLempjdumppcv2V63cZf2bHjuYfm5mceQWTtXHTNl1RYdLmqmGiorEwhOq9HQjxml9wmKod1DMC6rGpOnsk2Nbmj3qKheJihtx0dZ1JaZCn6Inwf/3oI2v1Or7u7Nxjs7Pf7z/eHw4U0S9Db4y9JRdZJ46gr4WfbUIb33H71mvPzBcn3QXJceBkRHMmSAUIqSDoV0BxhO0UoVjDBq+ZYOAwreGiRDvHRP7yx2h/4p87PLZ40Nr6pXrCModYBqSNBmgRMs0wQ12ReFLJer8PQ4cuqjSr1YzDd0KjXnKEUAqcSr8TAwjuyZrPKFpb7WAOqo01p/BdQWDlqszd4P7omA2oXjsFyFdmhblgu9alj5sE6Dgh8dFAHYVyEgyAzYIYkaQQjx+v7vtfB+w3yIu0P+72di0tzTyBx3A47b3ev19uTsSJEj06MQRSjrx7dm3Hy4L1fWHOkFonnfk51cFZwndE+Ae0soyAEApBVzpu1yDKzdGMS4nrjBRffujgY9JXZ+c4xu2cXPgxreNMT237MalWYFXBN0GjEvLDHctzjDAU7KQPZUUU1NcwKKWu1WpBDI8UDdcPQEcnQacdMNCWhBw3632UqBkgh58gJQkd3a46FVc+08MOC1MDSOkgfRH8kxThN5i93+IBBUUZCW6o6C+8uCMLtqCg+g8efD6Ph81DXO8LA21mwdJDHvn/fl654ze3K/bwMB+VpIpK/Aoxnnv9Z04vSjRmTSuSRJxmMggJQgbQkVygdRb95w/OjX/f8foyk0EJr7nuiIp+2KxVTIwJrjFUqJTY/P8/MwEJ7NJLNdIiobVFTDMPCCqbjeR1EdQkLR1Fa5WdC5W49CFirUWOtySlWYACklPRGGZJfhc8qGWYHCaTOURakpBhFK+Z78B49Kibi9aaFn0O2c/dzvfmZ+f+K2WcbFkstoKN+ZxL7O/ExOrqheP/h5otXjQNyUNi8r/zqUB58LR779LMulcMk3xJn8hWSarxLUW0nIoNYsxAdFRgdKSu5NivZTobW359gmn8uiIMYWncM/DwSnvMktfpCKGOhxRSbmdnFSpUyazRaILoOPV5m1Tq+VzReZLJBeIrK1MpLx4fiYL1Om3W7XQysgqFUznMBrG7iswgeZFQmh/vDH6cleOT6oNr4YkswRXKQmsPf73Yhs/vb+93eD9tLiw/DInkBUxSmlHTWG/YWWRb17//KdavWGTkYHFozK4MOxod9tWP87h98woEO35IVyu/kkvZeGNdUtgapICXIRiQnAlIFFRJWgx1IelpSpbiCqIvET4NfJ1VqVV7BpOeSBicyUi80ERQSmh8HzgxDFyk/nSyN+O+J5OD03uelnORwOVBJjBi69jAYbIYVMfz3dGwaGNTrThcQ6mX0/d73xbtz6TOSQKMBhDcnW7AT+v12GAX9bnv5qfk9u/9+YXb3j1GGH0CHL+lYNgipH9zzpev226p8NUxXw+/ftCR/1786G/yTsULZbVA/MzRsA/dpNNMdp+j22yVZexuayc1SpQoL0GGOW+JaGQ0c0MkWgxUH+QLZgBBqQDNTRIW1yGDEcAJKIJpCZW7ICkpCVRkyA6MFzgzD2mr47TFkD5JOSJU8TXg0HqJnHVYeJyXaeRkKLazd7SMBbbFGc4wGEkMRB3LERmSHrgfhaRBhCR6kTAotHvABg14Sru1pENLPfNEBL2ohYOMOQhfYKcCHa9LDAureoI/q++LiNiTEPwhCbwaLsefjMBhiwVmsK0rnqzdfsaYXibwhSX7+xderg4GnYkkVrQutogl0DLpUx5IeciEcLPikDkAbUbFaqzWOgp03gbVV426l2qiUa3UDFpwkY0EzqEokR1zkBIXdAGKZIDgiLyKxBCLJ4DqqoDziIr5yZ4QcGHJVwDxWgMgkHegrPQd91jwxxBI9tAhEbPaFnzKv1wOpPTgicFjQ8Yj+GGofYF4Qsql1G7jUoUFG1VeSM1g5g/WmfPbACqgy0wwV0kWD3qetX0aDTIMHT9GfzoUGAkV/ntjy/hIMLJAdC7Hh4wcYbHGMdbMezquLnQUGGHA9nHyI5FhamJ199Pntz/2POPIe+9Pbrvy5Oi9fr6i+5kj+W+8/CwFY1XCdDEQzrPZza9gExUS8wuIS3Ua/UBUaeByzM+o4eh3r1TZiL4r1cBoq2F/FRtmaCicapndqGUEghg2BjA5R3ISMMGCqyFDHUgxpEYNUaEBicUpSYhQZFewfROQGJUBcOIxwSyJIDiItL/tHCSzCHkvQmou9VkDwCKvKY5ApYpHvMehjLkOI7JHXZ1qO3A/HoZkAHwwxn+YA1FkxehRE62qtwaqVJixHl+YGTB5INDGL5Bh0RNwykltKYknb064ZZeQDFO0tPEYzj4qVTXRskjMU0fltL8mJ6DT4yK8cVXUxmDEQaEbig0LGp47jNgpSMzt++tR/2rXjub+Ss/BHd9921evWh/L/M1BWDcl//+wLUa7QVBDKRRRr4HvshaK7mNZRdTRstKSamOpVXEC3XK62EKWmsfKk5lYqUxr6QKm/mchLGR2inIOLRbtaGbhuGi407A0J5IU9QTpVKmg7FmSRWSjnRYQLSsVJHpfxC/jPSQFdTr5zOvT8ABE4KmRFR4QrEO0UJJ+qP/R0+M/YviLiGPb7Qx6FKQKT9saIw1sWzEG1E0sCsKpowNC0hEasPgju8cEARcD0PGYGrfaighOiv4qiEH1P2p1kkgsLEjMMLEfkBrRiO1dAViKshqo9efcYFvz1JKOxIkFDZRaDw0FyTMlvpVxlGNh8NiAZsyJhKJHNUL2liE+EJseIXByaLTDC8D4YbJBAqG4i2YZ/X6R7lmZ3/sNTP/rBXcPe8kNYN7tmKp6vKcl/873nEJE1gA3ZoLUAuAo/eSOag1ogCWkIF+v+DkP0bLpueRKNTS6Iy7f2QZRDrMX6EtS04UoYmIYlRDUH+07YEkIRRaqRTKCp28DFHMkCimIUhSmKwUJDNTuH5E18rArP8ViGKB7QFhUR1vhDMsSorKjQwn34yl200D1HpX1o1Fm8juw2BFfVwQFUuCjHYnaYQrI5gcSwim3fKpqqyzAz2J7ZOa6xU0R+7HOIFQIeQ6GcdzEO0cdCvSw4BzbodzEYRpvf0GfgdiDtNsdAYjgxChwdlOcRqZEPYDES8MCItUBr0Bn/kN6mzwbhzz8nOS9EdnqMN5ThZyw949YntScAZzY+PsZauNMOBDzxxX+EE3dqQO4MA4ywoloAzy0wO+FhViQxs3U1KVL/x99/9Ht3PfHDR//9A//xdix8Xf23g+qTn/GxKwxEPjARDaRueQplZAuRzcLiVRcg24gOBoDTsOpmGpvwHI4LUMOKbdetlB3w1sB10aCbDcculRTd0GkQKKqGmgyYQBcAkSfF1YXKJbsDWgOP41u6nGgS4pqXboqP6ASG4b0KENdHJbEDfzlFl9wQ5MPuFMMuInEPvxskSbyMnQC6mLbb0K4xLLflIssDxC8iv++Y1iBHSRskiGn7N2zKaRZprHUXBnZeyM1Gc/JE33JgHY69FdPMZLPstlrlo7AqhtpyYy5dlpZT5g1wltxvR/JXYP9EnDjW1vEK0EqiSp9kFJGJVaPHV+4vdUKOyMvNE7wcigJRl34a3anHhm6oyXLih5BFRFrsOMOGSGbpvLAFBMjcwECC80MSRsJuBOjPwYEgVeg9gTCF9ILbNbTbGENTC30ezbWsEw4/8tgz4iQNbPeS+799z40vtjWsVrofEMl//8IrqRBI0RTSQSoh6tRkSXMxlVfw2DrAXHXj1EHL2xiIOoVp30BfRRmS2UIwtkF2EDlH8NVtREwb5CVJrNJlhaTA3oMAkoot+Er91tgAAl8RaaB/Kami6MftM3Tmo+IMnyKLg267j2nVA1Fp7yCyyWiZlT/sD/o4bJimyQKIuw3k6SHRwrLCoItI7CmyDNEue4aazyahj9FRRPfdfcsB+8Wn/vZHvue4lamJiXXHoRHqCMdy34ot6U7GoJhwbL2uyCVIlS7rgSgxJgPgBW5qxCcEWOhl6u/iWgkShXQ5MZe+knjiKe+I+LxnBp+fojcNAgkEHEVvIvvI8VuJ5vwrP8zIvlw5Lg0Yyh24B4+gwf13rMzmMx9VoTBIKK8gSUP6nBJnibJgSrpRjAohrbDfiWTZ5eMOP+LoM5PY24kXPbhayb1yXv+PXDnroquxW2veAA/Xo7e5ihUxJUCNSKw5EpORtlkNaGLs5aeXEH2r2OwHiZ/BtyfGQXWEEAuRQ8fUR1+x8ZGu8yQGF4YAp+9Hic/IhaBLCRnCp3eaNskao63ckLhRqZk8L5ILIbm86LfowQkIKCIjgYNwjvtFFLyA7GkPtXziIgampqOnLicd3cWWHUNc4kVctHYCT+wbX7n6kFb4fu+cz5lo7tuE/OBILLbYish/fKVS/ceQPWNYPIDTzOGgeAxldV5UipMA0T0Y6WoiLSQLuSdctpCmV0BAyBRMjUw17JGEQdJJz1lJJrl+p0HCB8bocvLiEml8fEUs4dhS2Z8iOprEkcTasCWb6J2p82tCxSs+Y8DOJC1O14E7SggjOV95TBodMw9VW1PYlBhUulrML8xv/+Zjjzx4+V/f92UKKKv29rJIfsZHPmvoWumkZmP8N6rN8RPscrmRSdhbG4kfiEitEho+K7btghXHJNpze1SFw0UB+bi/u6KBqf+a8jwKknyKxAXgFUMieYaQQPEBLIVfG2qhHIAI2J0K/UFJksKvRZsGpXtBiLWBIG/ehe/rQ8NuhwWGaOy3MdP2G/VqNxgOljRFQhFDAVuK5E9uv+F127Lt61+5khbebqP7O3/nIw/omrW17ZQQ7eTfRjA+ktfsSWkhecTMA+cFQ5wSSPqPS49RJCcJQXdyW1YsQXJCJGr5xZ0UCUXpkQ8z0uL5SlTnP+E3XMKMGso45vzIhP/oMYrWdL1I22Ojpr0BBz8j6HA7FIOOEmhyk7BFNc41ZgX1fmEKolaDTC+akqIfDUeKtudY1beXkbxSbji5rB+H5GarZZa3GEa1mcsyDyEUPbBZMfdZX8zGodMgSQCGR1YGjyh8quMVOVr3B1WOXRnpK61AwOMpeEvbt0EbhyF08AAJ2QtR6D2Px9rVUpnkTA5i+9i3Gx6h5lfK2jIiH1qbl5aUNPGm6mO9O+++5aCs4j6UV+a//cWdlJQ9/I7TPjhfKtdCyJhzQOkWUdNEAokulL0FpD4nLDfHiZ4UpWnWwzNGNH0pOq8klCuE5ZqZJ5vkz9NzVxJQmjVHswL3yamFAIGIJ6m40TkQwUPP5y2/A5CZVijRkKEb2ZgUoGhAkIwxMHtQ82Vv4CFpgozE8oo0yFT0x+jYJKiOl6xq//xlJI+jKPVCf3cu6T1Zc4elXDZ025WQUhNxC8jnQoPvSsiS9oUHHCpFCmHh+yh4oGMPDZ3egMRxCpsMGA4G2FSzDZIPEXmxu6weYnrEjrOsj0WvHdhTM64a71aVoKMZSazn/ZTysHpZz//41ktet4h8MMn/99+994V/+p6zviMx6xdw3F+GrVil4gxhOirOkKtJ5BoFjxXZMdLVI8kxutPvKd+mBHEU8UlSjHg7Ghb8wuyVLVzb48bL/Xg/ynN4ABp5M3wGpvfQdcgmajcg4HkhCcfi7zEaJNhQiWVUQeWtB+ABzjvGcaiINOz1Qq8/WPUtAC8j+R1f+FT/7I/d+Egc9K2dO57eJc9YU9hxHi2lkkbg4cNDYvCGINLMCNNhWyniOcxf6FUezgHEGLotA2BY2JpGwAX2cK+Drz5WpiRl16Q9vbERbRre9fnPvCFIvD8DAp1/P4hj434kmsgJ5JMlOcefU8nAIir9j0i+0rRNyzM4yahiSt3lFKV5ZKVK5YiE5JVj5yl8HUXyFY1O3Yw8faSchx+Q5NCoL4aOh62l+fdYdIyNfQa8+zGNMeNCilDySdd4JC2pBQHCBVJFQV4wQAGLZnBqFShyFK6QKiWpT4OELF5nfzB4PZ+zT5/8d8/8TAVLocayvHBh1ZlwPRBEoBqLIsWFKbCxXRcnDrOuGECFhF/74pWHNKl7PUE6GO/9jlP+pek6lbfrmv0vwLgTUJHdHMRhJYiGtqyQTUd6lwhJCSLkBXYJIGuvANHwJzDgkcPX5lJGQ3Q2eCWT5ziIrETAkYvy0pmS+qEITok9kZ5+T5VZ5DeokrpoIxiA2OjBgRdPbiEdi+Q178FBpOYRnf91mJHkoRYALCaCfu8j6aRCUZSYWvq/TS246bbrLvqrg4HRoTrGa1oMOlQfYi0d99R/8oEG6gO/CPVwCma/w1RD3Zzm6QaE4AqIZZC7QToZW3FDplPHIvQ7vpfwFUVXyAYDhCTrEeGFOhFR4eR2I0hM/TIrBSIuSvAm5KbwSM7jOu04kGJVswlLMOADhWxMiuIKngcZzx+jn6mARNXbHA4LbFce/UnmoI6GXGuQmKa65Fry96uu9NVrLj17VZP8gHzytUSm1Xqu//3Bb9DOvH/zj37pXQ8jam4IU/Y2/HykJisbIBMOA03HsRtEOS8SCxqYrFkt5bY3aE3FTcgP0sfcLkekRhDnTgrXy+S6UNchFZm4ZUuvIo0zUoa0+Q8lkkRwuFjYqXcIQsNXkF1mGtT/gFmDvmqQMfg9dUlSg49R0iFPCrQudBkW5mNLt8Ud+BNLM52l/n/ZGQ0eWa1Yr5yXiOSv8xU69vhflujPg0DbboBkmQCVJ1F3WK/I+nrkg9Oa6UygKDaGvTKxyY/hgoJoWVH3ypW97b57k03eYci9yFEvDBKol2oT+JzUpwJXiw8IWne6MDdPUbqLv0y3XMd607GxZs1FdxsGFi2D4sca9j0uh/D8cPv2Z57w/e5fQo8/3KiVdsbRcPv/+ptvrnqZKkj+OpP8ld7+lF97NzWn1VEv2ogWkk3oiDhat51NhumMIz2axACYoGIc7tR0xrUzr08gkeU2IXQH7QIw0umjzsMVXU5VU1pTSk1i25979vmF+bm/wDzwAFqCkmazfgTaMY7E62hPlgaq2A2L9w9pClZDBbOzOx8Iov6d3/nWHbtWIWz7PCVB8jVwtTZv+TX08uhjllU6zLbKW7FH4bG2Yb8F/T3TSFAnYQyU0JrLPcQVr5svr4MzQubiSxbkqIWAahho/02f3/Hs3w567ZuyPHoci0B8tOriTztYFuxF/GtVieQYJBNwzEqua80t7Jn5uz//+q29NQDZy05RkHyNXbFj3noaWmTsCZBxCyL88ahjnIAOyEm05bZo/0L0A9UQym3uMe7tZhxVLkcuCel0Sj6pf2dpaeY72MTosicfvf8N/VegReK5xki+7fHvkgYmubDrpHe8+yE0A44NmLoJFmALxbppODdHYseuIxDpx1Byb4HR9SLNLAmODfnbPLLjj5Tgny7+uGMvLVt835g38k1E8jfY1T3+pN8sw2GpunZpE/ZePAnNYluwom9zmmRwalSH3Bm0UNBfdfgp9jO854G/vGNV238H4/IIkh8MFFfpMU7+1fdQW1wdf0ztMCSnh+PvP08iQTXxWILk8ge9bvt7D/3t19bUUrZVCrU4rdWEwK+c9r5Rk4u4CQQEAgIBgYBAQCAgEBAICAQEAgIBgYBAQCAgEBAICAQEAgIBgYBAQCAgEBAICAQEAgIBgYBAQCAgEBAICAQEAgIBgYBAQCAgEBAICAQEAgIBgYBAQCAgEBAICAQEAgIBgYBAQCAgEBAICAQEAgIBgYBAQCAgEBAICAQEAgIBgYBAQCAgEBAICAQEAgIBgYBAQCAgEBAICAQEAgIBgYBAQCAgEBAICAQEAgIBgYBAQCAgEBAICAQEAgIBgYBAQCAgEBAICAQEAgIBgYBAQCAgEBAICAQEAgIBgYBAQCAgEBAICAQEAgIBgYBAQCAgEBAICAT2F4H/AwZAApqz3b/pAAAAAElFTkSuQmCC;" vertex="1" parent="1">
          <mxGeometry x="280" y="228.95" width="86.07" height="52.1" as="geometry" />
        </mxCell>
      </root>
    </mxGraphModel>
  </diagram>
</mxfile>
